<svg width="174" height="45" viewBox="0 0 174 45" fill="none" xmlns="http://www.w3.org/2000/svg">
<path fill-rule="evenodd" clip-rule="evenodd" d="M25.7706 0.512396C25.6102 0.794166 24.1539 3.49834 22.5347 6.52157C20.9153 9.54481 19.1164 12.8896 18.5371 13.9544C17.9576 15.0192 17.4837 16.0274 17.4837 16.195V16.4994H19.6657H21.8479L22.5499 15.1834L23.2519 13.8673L27.039 13.8989L30.8262 13.9303L31.5177 15.185L32.2093 16.4397L34.4207 16.4722C36.4275 16.5017 36.632 16.486 36.632 16.3033C36.632 16.1286 35.7839 14.4328 34.7281 12.4963C34.2508 11.621 32.8497 8.9968 32.0164 7.41779C31.6176 6.66198 30.5726 4.69927 29.694 3.05621L28.0966 0.0688293L27.0795 0.0344147L26.0622 0L25.7706 0.512396ZM67.1385 7.97762C64.7836 12.3602 62.8399 16.0716 62.8189 16.2253L62.7811 16.5048L65.0066 16.4722L67.2321 16.4397L67.9006 15.185L68.569 13.9303L72.384 13.8987L76.199 13.8673L76.9019 15.1818L77.6046 16.4963L79.7752 16.4979C81.932 16.4994 81.9457 16.4978 81.9457 16.2368C81.9457 16.0923 80.0324 12.3831 77.6938 7.99388L73.442 0.0137419L72.431 0.0115911L71.4201 0.00932064L67.1385 7.97762ZM6.89857 1.68202V3.23545H8.56792H10.2372L10.2033 7.57612L10.1692 11.9168L9.85003 12.4012C9.33861 13.1773 8.64428 13.4523 7.1959 13.4523C6.18485 13.4523 5.92069 13.4099 5.43378 13.169C4.71138 12.8116 4.2668 12.1645 4.18973 11.3581L4.13288 10.7637H2.18558H0.238281V11.3991C0.238281 12.7123 0.789539 13.9336 1.82735 14.9198C2.62861 15.6811 3.64609 16.1979 4.9678 16.5151C5.84482 16.7254 6.26584 16.7556 7.67164 16.7093C9.0873 16.6627 9.48395 16.6045 10.3197 16.3215C12.1182 15.7124 13.575 14.4391 14.1705 12.9557C14.4504 12.2585 14.4509 12.2473 14.4857 6.19296L14.5206 0.128577H10.7096H6.89857V1.68202ZM37.1077 0.477025C37.1077 0.668696 38.5315 4.33864 40.2715 8.63258C42.0116 12.9265 43.4631 16.5086 43.497 16.5929C43.543 16.7074 43.8891 16.7375 44.8681 16.7124L46.1778 16.6787L47.9165 12.4087C48.8728 10.0603 49.682 8.13906 49.7147 8.1393C49.7675 8.13966 52.8261 15.3641 53.1924 16.3538L53.3377 16.7457L54.6258 16.7123L55.9141 16.6787L59.1178 8.73224C60.88 4.3617 62.3217 0.637866 62.3217 0.457189V0.128577H60.1411H57.9605L56.3304 4.48705C55.4339 6.88424 54.6164 9.04747 54.5138 9.29422L54.3272 9.74293L52.4847 5.115L50.642 0.487063H49.7166H48.7911L48.2015 2.01063C47.8772 2.84865 47.0552 4.97256 46.3749 6.73045L45.1381 9.92683L44.9406 9.35935C44.8319 9.04735 44.0902 7.07125 43.2923 4.96814C42.4944 2.86502 41.7615 0.915812 41.6637 0.636432L41.4859 0.128577H39.2968H37.1077V0.477025ZM89.5575 0.656029C89.5575 0.839454 90.7276 2.63392 92.7687 5.58103L95.9799 10.2176V13.478V16.7384H98.1207H100.262V13.445V10.1515L103.379 5.64794C105.531 2.53796 106.51 1.02407 106.543 0.755927L106.591 0.367568H104.379H102.168L100.755 2.48861C99.978 3.65524 99.0727 5.00136 98.7432 5.48017L98.1441 6.3507L97.203 5.00219C96.6855 4.26048 95.7634 2.91437 95.1541 2.01063L94.0463 0.367568H91.8019H89.5575V0.656029ZM110.133 8.55299V16.7384H116.08H122.026V15.1252V13.512H118.221H114.415V11.7196V9.92719H117.864H121.313V8.314V6.70082H117.864H114.415V5.14738V3.59394H118.102H121.789V1.98075V0.367568H115.961H110.133V8.55299ZM126.189 1.98075V3.59394H130.005C132.104 3.59394 133.803 3.63576 133.781 3.68703C133.746 3.77008 127.153 13.6313 125.869 15.5211C124.957 16.8637 124.245 16.7384 132.79 16.7384H140.223V15.1268V13.515L136.017 13.4837L131.811 13.4523L135.916 7.29829C138.61 3.25876 140.039 1.01081 140.075 0.755927L140.13 0.367568H133.16H126.189V1.98075ZM144.743 8.55299V16.7384H148.954C153.472 16.7384 154.166 16.6737 155.713 16.1066C157.63 15.4044 159.249 13.9884 160.076 12.2912C160.729 10.9519 160.918 10.1263 160.918 8.61274C160.918 7.09336 160.729 6.27374 160.066 4.91245C159.145 3.02323 157.297 1.53563 155.03 0.857857C153.739 0.471648 152.356 0.369599 148.4 0.368524L144.743 0.367568V8.55299ZM164.486 1.80151V3.23545H165.734H166.983V8.55299V13.8705H165.675H164.367V15.3045V16.7384H169.065H173.763V15.3045V13.8705H172.454H171.146V8.55299V3.23545H172.395H173.644V1.80151V0.367568H169.065H164.486V1.80151ZM148.905 8.62481V13.5362L150.898 13.4856C153.08 13.4303 153.607 13.3121 154.658 12.6426C156.607 11.4013 157.312 8.5175 156.21 6.29501C155.829 5.52773 154.996 4.66426 154.298 4.31414C153.342 3.83436 152.637 3.7163 150.719 3.71487L148.905 3.71344V8.62481ZM71.2079 8.22582C70.5678 9.57325 70.065 10.6967 70.0905 10.7223C70.116 10.7479 71.1851 10.7542 72.4664 10.7364L74.7959 10.7039L73.6362 8.28712C72.9983 6.95785 72.4529 5.84894 72.424 5.82301C72.3952 5.79707 71.8479 6.87827 71.2079 8.22582ZM25.8499 8.25426L24.6664 10.7039L26.9796 10.7364C28.2517 10.7542 29.3152 10.7462 29.3428 10.7185C29.3703 10.6908 28.8621 9.57384 28.2132 8.23633L27.0336 5.8046L25.8499 8.25426Z" fill="white"/>
<path d="M3 25.0174C0.84 25.0174 0.1 23.2089 0 22.3047H114.6V25.0174H3Z" fill="#FFF7F7"/>
<path d="M171 25.0174C173.16 25.0174 173.9 23.2089 174 22.3047H113.7V25.0174H171Z" fill="#FFF7F7"/>
<path d="M15.6 31.6486C13.44 31.6486 12.7 29.8401 12.6 28.9359H102V31.6486H15.6Z" fill="#FFF7F7"/>
<path d="M158.4 31.6486C160.56 31.6486 161.3 29.8401 161.4 28.9359H101.1V31.6486H158.4Z" fill="#FFF7F7"/>
<path fill-rule="evenodd" clip-rule="evenodd" d="M40.4367 35.7306C40.0769 35.8145 39.6487 35.9556 39.4852 36.0443C37.9753 36.8621 37.2311 38.5447 37.3772 40.8094C37.4989 42.6937 38.2253 43.9506 39.5787 44.6183C40.2175 44.9336 40.3509 44.9536 41.8044 44.9536C43.2508 44.9536 43.389 44.9331 43.9452 44.6353C44.7443 44.2076 45.3519 43.5489 45.7451 42.6838C46.0161 42.0875 46.0793 41.7569 46.1222 40.7107C46.2078 38.6227 45.721 37.2834 44.5545 36.3975C44.2396 36.1584 43.7596 35.8955 43.4878 35.8133C42.7717 35.5967 41.1942 35.554 40.4367 35.7306ZM65.4128 35.7303C65.053 35.8144 64.6248 35.9556 64.4613 36.0443C62.9514 36.8621 62.2071 38.5447 62.3533 40.8094C62.475 42.6937 63.2014 43.9506 64.5548 44.6183C65.1936 44.9336 65.327 44.9536 66.7805 44.9536C68.1738 44.9536 68.3796 44.9258 68.8618 44.6721C70.5037 43.8084 71.2166 42.289 71.0934 39.9162C70.9881 37.8893 70.3527 36.7503 68.9364 36.0498C68.314 35.742 68.0104 35.6712 67.1277 35.6286C66.4972 35.5981 65.8016 35.6393 65.4128 35.7303ZM91.6204 35.6899C90.3659 35.9586 89.3224 36.8202 88.7398 38.0683C88.448 38.6936 88.4265 38.8551 88.4265 40.4128C88.4265 42.0078 88.4425 42.1208 88.7724 42.8386C89.2234 43.82 90.0536 44.585 90.9521 44.8475C91.6951 45.0645 93.8009 45.0271 94.5813 44.7831L95.0273 44.6437V43.7531C95.0273 43.2633 95.0091 42.8625 94.9868 42.8625C94.9646 42.8625 94.5279 42.97 94.0163 43.1015C92.8203 43.4088 92.3453 43.4027 91.6958 43.0716C90.9727 42.7029 90.6274 42.0076 90.5413 40.7463C90.4029 38.716 91.268 37.3657 92.7072 37.3657C93.0665 37.3657 93.782 37.5701 94.5659 37.8966C94.7178 37.9599 94.8248 37.8108 95.0714 37.1921C95.2434 36.7604 95.3841 36.3616 95.3841 36.3058C95.3841 36.1194 93.829 35.6887 92.966 35.6362C92.4971 35.6077 91.8916 35.6319 91.6204 35.6899ZM115.175 35.6889C112.881 36.1814 111.524 38.4717 111.903 41.2097C112.174 43.1678 112.893 44.2424 114.295 44.7825C114.863 45.0018 115.127 45.0275 116.316 44.9797C117.069 44.9493 117.885 44.8614 118.13 44.7841L118.576 44.6437V43.7531C118.576 43.2633 118.558 42.8625 118.536 42.8625C118.513 42.8625 118.077 42.97 117.565 43.1015C117.054 43.2329 116.441 43.3405 116.204 43.3405C115.514 43.3405 114.757 42.8857 114.413 42.265C114.147 41.7825 114.116 41.592 114.116 40.4101C114.116 39.2315 114.148 39.0301 114.42 38.4981C114.994 37.3774 116.027 37.0984 117.464 37.676C117.889 37.8467 118.254 37.9676 118.275 37.9449C118.342 37.8741 118.933 36.3739 118.933 36.2745C118.933 36.1023 117.351 35.6863 116.501 35.635C116.04 35.6072 115.443 35.6315 115.175 35.6889ZM147.635 35.6905C146.967 35.8334 146.539 36.0719 146.096 36.5489C145.178 37.536 145.258 39.1825 146.271 40.1577C146.458 40.338 147.137 40.765 147.779 41.1064C149.08 41.7985 149.44 42.1637 149.314 42.6663C149.126 43.4182 147.865 43.5281 146.361 42.9234C145.951 42.7584 145.552 42.6235 145.476 42.6235C145.381 42.6235 145.336 42.9262 145.336 43.5695V44.5157L145.901 44.7346C146.341 44.905 146.796 44.9536 147.953 44.9536C149.302 44.9536 149.494 44.926 150.028 44.6549C151.14 44.0905 151.646 42.9989 151.38 41.7397C151.202 40.8987 150.566 40.2587 149.224 39.5689C147.907 38.8924 147.596 38.6283 147.596 38.186C147.596 37.3846 148.517 37.1517 149.872 37.6103C150.27 37.7448 150.649 37.8371 150.714 37.8152C150.82 37.7795 151.402 36.488 151.402 36.2868C151.402 36.2415 151.05 36.0882 150.619 35.9462C149.725 35.6514 148.363 35.5347 147.635 35.6905ZM22.002 40.2933V44.8939H23.028H24.054L24.0025 41.7902C23.9741 40.0831 23.9597 38.6985 23.9704 38.7132C23.9812 38.7278 24.4086 40.1265 24.92 41.8212L25.8499 44.9026L26.8594 44.8683L27.8691 44.8341L28.5083 42.9222C28.86 41.8707 29.3261 40.424 29.5443 39.7074L29.9408 38.4046L29.8789 41.6492L29.8171 44.8939H30.8453H31.8735V40.2933V35.6928L30.476 35.6959L29.0785 35.6991L28.0081 39.0325L26.9377 42.366L26.3824 40.6127C26.077 39.6484 25.6064 38.1469 25.3366 37.2761L24.8461 35.6928H23.424H22.002V40.2933ZM50.665 36.589V37.4852H51.9138H53.1626V41.1895V44.8939H54.233H55.3034V41.1895V37.4852H56.5522H57.801V36.589V35.6928H54.233H50.665V36.589ZM76.5925 40.276V44.8939H77.6629H78.7333V43.1612V41.4285H79.1339C79.5218 41.4285 79.5684 41.4839 80.5909 43.1597L81.6472 44.8909L82.8068 44.8923C83.4446 44.8932 83.9664 44.8653 83.9664 44.8303C83.9664 44.7953 83.4045 43.9404 82.7176 42.9306C81.5143 41.1612 81.336 40.8311 81.5836 40.8311C81.8202 40.8311 82.5845 40.0389 82.7932 39.5774C83.218 38.6378 83.0151 37.3351 82.3326 36.6192C81.7349 35.9922 80.9208 35.7943 78.6441 35.7226L76.5925 35.6581V40.276ZM99.4278 35.7567C99.4278 35.7918 100.097 37.071 100.914 38.5994L102.401 41.378V43.136V44.8939H103.472H104.542V43.1392V41.3847L105.963 38.7478C106.745 37.2976 107.419 36.0168 107.463 35.9019C107.534 35.712 107.438 35.6928 106.426 35.6928H105.311L104.407 37.5148L103.503 39.3368L102.594 37.5148L101.686 35.6928H100.557C99.9359 35.6928 99.4278 35.7216 99.4278 35.7567ZM124.047 40.2933V44.8939H126.961H129.875V44.0574V43.221H128.031H126.188V39.4569V35.6928H125.118H124.047V40.2933ZM134.989 40.2933V44.8939H137.724H140.46V44.0574V43.221H138.795H137.13V42.0858V40.9505H138.676H140.222V40.1141V39.2776H138.676H137.13V38.3814V37.4852H138.795H140.46V36.589V35.6928H137.724H134.989V40.2933ZM40.9149 37.499C40.4934 37.668 40.2101 37.9536 39.9211 38.5009C39.7086 38.9034 39.6683 39.1866 39.6661 40.2933C39.664 41.4301 39.701 41.6839 39.9397 42.1708C40.8076 43.9415 43.3377 43.5811 43.7735 41.6247C43.8535 41.2653 43.8942 40.5158 43.8659 39.9211C43.8048 38.6374 43.4871 37.9491 42.7913 37.5924C42.313 37.3472 41.4062 37.3021 40.9149 37.499ZM65.8147 37.5374C64.9335 37.9227 64.5124 39.0225 64.6071 40.6916C64.6996 42.321 65.2208 43.0866 66.3707 43.2818C67.4883 43.4715 68.4942 42.7707 68.7496 41.6247C68.9717 40.6272 68.8525 38.9682 68.5153 38.3655C68.0172 37.4749 66.8064 37.1036 65.8147 37.5374ZM78.7333 38.6065V39.7556H79.2724C79.9276 39.7556 80.5719 39.5021 80.7457 39.176C80.9768 38.7422 80.9001 38.1489 80.573 37.8401C80.3365 37.6167 80.1067 37.5452 79.5026 37.5066L78.7333 37.4573V38.6065Z" fill="white"/>
</svg>
